<!DOCTYPE svg PUBLIC "-//W3C//DTD SVG 1.1//EN" "http://www.w3.org/Graphics/SVG/1.1/DTD/svg11.dtd">
<!-- Uploaded to: SVG Repo, www.svgrepo.com, Transformed by: SVG Repo Mixer Tools -->
<svg width="800px" height="800px" viewBox="0 0 24 24" fill="none" xmlns="http://www.w3.org/2000/svg">
<g id="SVGRepo_bgCarrier" stroke-width="0"/>
<g id="SVGRepo_tracerCarrier" stroke-linecap="round" stroke-linejoin="round"/>
<g id="SVGRepo_iconCarrier"> <g id="style=bulk"> <g id="location"> <path id="vector (Stroke)" fill-rule="evenodd" clip-rule="evenodd" d="M8.9461 21.1315L8.89129 21.0787L8.89035 21.0778C8.81273 21.0023 8.73386 20.9254 8.65394 20.8471C7.2824 19.5029 5.57222 17.7231 4.34999 15.6268C3.12314 13.5227 2.35382 11.04 2.96276 8.32592C5.09133 -1.11519 18.9197 -1.10413 21.0372 8.33595C21.6639 11.1292 20.831 13.6741 19.5403 15.8149C18.2545 17.9477 16.4747 19.7455 15.0992 21.0783C14.0956 22.0555 13.1259 22.7323 12.0296 22.7449C10.9283 22.7576 9.95462 22.098 8.95039 21.1357L8.9461 21.1315Z" fill="#BFBFBF"/> <path id="ellipse (Stroke)" fill-rule="evenodd" clip-rule="evenodd" d="M8.75 9.5C8.75 7.70507 10.2051 6.25 12 6.25C13.7949 6.25 15.25 7.70507 15.25 9.5C15.25 11.2949 13.7949 12.75 12 12.75C10.2051 12.75 8.75 11.2949 8.75 9.5Z" fill="#000000"/> </g> </g> </g>
</svg>